<svg width="280" height="280" viewBox="0 0 280 280" fill="none" xmlns="http://www.w3.org/2000/svg">
<rect width="280" height="280" fill="#FFFAF0"/>
<path d="M107.672 102.376V104.936C104.771 105.021 102.552 105.363 101.016 105.96C99.5653 106.472 98.584 107.496 98.072 109.032C97.56 110.483 97.304 112.787 97.304 115.944V180.968C97.304 183.613 97.4747 185.576 97.816 186.856C98.2427 188.136 99.0107 188.989 100.12 189.416C101.315 189.843 103.064 190.056 105.368 190.056H111.64C114.541 190.056 117.272 189.373 119.832 188.008C122.392 186.643 124.696 184.723 126.744 182.248C128.792 179.688 130.499 176.659 131.864 173.16C133.229 169.661 134.253 165.779 134.936 161.512H137.88C137.624 164.413 137.496 168.168 137.496 172.776C137.496 174.739 137.539 177.597 137.624 181.352C137.709 185.107 137.965 188.989 138.392 193C134.04 192.829 129.133 192.744 123.672 192.744C118.211 192.659 113.347 192.616 109.08 192.616C106.947 192.616 104.216 192.616 100.888 192.616C97.56 192.616 93.976 192.659 90.136 192.744C86.296 192.744 82.4133 192.787 78.488 192.872C74.5627 192.872 70.8507 192.915 67.352 193V190.44C70.0827 190.269 72.1307 189.928 73.496 189.416C74.8613 188.904 75.7573 187.88 76.184 186.344C76.696 184.808 76.952 182.504 76.952 179.432V115.944C76.952 112.787 76.696 110.483 76.184 109.032C75.7573 107.496 74.8187 106.472 73.368 105.96C72.0027 105.363 69.9973 105.021 67.352 104.936V102.376C69.4853 102.461 72.344 102.547 75.928 102.632C79.5973 102.717 83.48 102.76 87.576 102.76C91.3307 102.76 95 102.717 98.584 102.632C102.253 102.547 105.283 102.461 107.672 102.376ZM177.602 100.712C182.637 100.712 186.519 101.267 189.25 102.376C191.981 103.4 194.327 104.509 196.29 105.704C197.314 106.301 198.125 106.771 198.722 107.112C199.405 107.368 200.045 107.496 200.642 107.496C201.495 107.496 202.093 107.027 202.434 106.088C202.861 105.149 203.202 103.741 203.458 101.864H206.402C206.317 103.485 206.189 105.448 206.018 107.752C205.933 109.971 205.847 112.915 205.762 116.584C205.762 120.253 205.762 125.075 205.762 131.048H202.818C202.477 126.611 201.453 122.301 199.746 118.12C198.039 113.939 195.607 110.525 192.45 107.88C189.378 105.149 185.581 103.784 181.058 103.784C176.962 103.784 173.591 104.936 170.946 107.24C168.301 109.544 166.978 112.744 166.978 116.84C166.978 120.253 167.831 123.197 169.538 125.672C171.245 128.061 173.719 130.408 176.962 132.712C180.29 135.016 184.301 137.789 188.994 141.032C193.09 143.677 196.759 146.323 200.002 148.968C203.245 151.613 205.847 154.6 207.81 157.928C209.773 161.256 210.754 165.224 210.754 169.832C210.754 175.464 209.261 180.115 206.274 183.784C203.373 187.453 199.533 190.227 194.754 192.104C189.975 193.896 184.727 194.792 179.01 194.792C173.719 194.792 169.495 194.28 166.338 193.256C163.181 192.232 160.535 191.165 158.402 190.056C156.525 188.861 155.074 188.264 154.05 188.264C153.197 188.264 152.557 188.733 152.13 189.672C151.789 190.611 151.49 192.019 151.234 193.896H148.29C148.461 191.848 148.546 189.459 148.546 186.728C148.631 183.997 148.674 180.456 148.674 176.104C148.759 171.667 148.802 166.077 148.802 159.336H151.746C152.087 164.968 153.026 170.259 154.562 175.208C156.183 180.072 158.615 183.997 161.858 186.984C165.186 189.971 169.581 191.464 175.042 191.464C178.029 191.464 180.674 190.952 182.978 189.928C185.367 188.819 187.287 187.197 188.738 185.064C190.189 182.931 190.914 180.285 190.914 177.128C190.914 173.544 190.061 170.429 188.354 167.784C186.733 165.139 184.471 162.664 181.57 160.36C178.754 158.056 175.469 155.709 171.714 153.32C167.703 150.675 163.949 148.029 160.45 145.384C156.951 142.739 154.135 139.709 152.002 136.296C149.954 132.883 148.93 128.829 148.93 124.136C148.93 118.76 150.253 114.365 152.898 110.952C155.629 107.453 159.17 104.893 163.522 103.272C167.959 101.565 172.653 100.712 177.602 100.712Z" fill="#1C1414"/>
</svg>
